<!DOCTYPE svg PUBLIC "-//W3C//DTD SVG 20010904//EN" "http://www.w3.org/TR/2001/REC-SVG-20010904/DTD/svg10.dtd">
<svg version="1.0" xmlns="http://www.w3.org/2000/svg" width="224px" height="139px" viewBox="0 0 2240 1390" preserveAspectRatio="xMidYMid meet">
<g id="layer1" fill="#7d0301" stroke="none">
 <path d="M0 695 l0 -695 1120 0 1120 0 0 695 0 695 -1120 0 -1120 0 0 -695z m339 546 c2 0 -2 -7 -8 -15 -9 -10 -8 -16 4 -26 18 -15 30 -6 30 23 0 18 6 22 35 23 50 1 55 -5 27 -35 -13 -14 -30 -37 -37 -50 -10 -20 -9 -26 14 -50 33 -35 33 -41 -4 -41 -21 0 -28 4 -24 14 3 8 0 17 -6 21 -7 4 -14 -2 -17 -14 -4 -16 -13 -21 -39 -21 l-33 0 24 36 c14 20 25 41 25 45 0 5 -14 23 -30 41 -29 32 -30 33 -45 13 -13 -16 -19 -18 -35 -7 -30 18 -40 15 -40 -13 0 -23 2 -24 20 -15 18 10 20 8 20 -20 0 -32 -8 -38 -28 -18 -9 9 -12 7 -12 -10 0 -24 19 -29 39 -9 10 10 15 8 26 -7 22 -29 10 -36 -60 -36 l-64 0 6 35 c4 23 2 35 -6 35 -6 0 -11 7 -11 15 0 8 5 15 11 15 8 0 10 12 6 34 -3 19 -4 36 -2 38 3 3 204 3 214 -1z m219 -7 c23 -16 29 -48 12 -59 -6 -3 -14 5 -20 19 -5 14 -13 26 -17 26 -29 -1 -50 -51 -39 -95 7 -28 40 -35 50 -10 8 22 21 18 34 -10 14 -29 7 -35 -49 -37 -35 -1 -46 3 -67 27 -32 38 -26 99 13 132 31 27 52 29 83 7z m387 7 c6 -1 10 -37 10 -86 0 -84 0 -85 -25 -85 -25 0 -25 0 -23 82 3 79 2 82 -13 61 -19 -27 -30 -28 -50 -8 -30 29 -36 17 -32 -60 l3 -75 -34 0 c-27 0 -32 3 -23 12 15 15 16 124 0 134 -6 4 -17 -1 -25 -12 -11 -15 -17 -17 -33 -6 -30 18 -40 15 -40 -13 0 -23 2 -24 20 -15 18 10 20 8 20 -20 0 -32 -8 -38 -28 -18 -9 9 -12 7 -12 -10 0 -24 19 -29 38 -10 9 9 15 8 26 -7 21 -29 11 -35 -59 -35 l-64 0 6 35 c4 23 2 35 -6 35 -6 0 -11 7 -11 15 0 8 5 15 11 15 8 0 10 12 6 34 -3 19 -4 36 -2 38 3 3 311 2 340 -1z m89 0 c5 0 3 -7 -3 -15 -7 -8 -11 -27 -9 -43 3 -28 4 -27 26 15 13 25 30 42 40 42 14 0 17 -10 18 -57 0 -32 3 -70 7 -85 7 -26 5 -28 -23 -28 -17 0 -29 4 -25 9 6 11 14 71 9 71 -9 0 -31 -56 -27 -67 3 -9 -8 -13 -38 -13 -33 0 -40 3 -31 12 15 15 16 120 1 135 -23 23 -1 32 55 24z m313 -8 c2 -6 -1 -14 -6 -18 -6 -3 -11 -15 -11 -27 0 -16 5 -19 25 -16 22 5 25 2 25 -23 0 -29 -13 -38 -25 -19 -8 13 -25 3 -25 -16 0 -17 31 -19 49 -1 10 10 14 9 22 -5 14 -26 29 -22 29 7 0 14 -4 25 -10 25 -5 0 -10 7 -10 15 0 8 5 15 11 15 8 0 10 12 6 35 -7 41 -2 43 103 40 108 -3 106 -3 92 -17 -7 -7 -12 -28 -12 -48 l0 -35 28 50 c39 71 56 67 57 -15 1 -36 5 -75 9 -87 7 -21 4 -23 -23 -23 -29 0 -30 2 -21 26 12 32 13 44 1 44 -11 0 -26 -39 -23 -57 2 -9 -44 -12 -177 -13 l-180 0 6 35 c4 23 2 35 -6 35 -6 0 -11 7 -11 15 0 8 5 15 10 15 11 0 14 33 3 43 -3 4 -12 -1 -19 -11 -11 -14 -16 -15 -33 -4 -30 17 -41 15 -41 -9 0 -16 5 -20 20 -16 17 4 20 0 20 -24 0 -31 -9 -36 -28 -17 -9 9 -12 7 -12 -10 0 -23 15 -28 39 -13 10 7 19 4 27 -7 19 -26 8 -32 -61 -32 l-64 0 6 35 c4 23 2 35 -6 35 -6 0 -11 7 -11 15 0 8 5 15 11 15 8 0 10 12 6 34 -3 19 -4 36 -2 38 2 2 50 3 106 3 68 0 104 -4 106 -12z m491 -19 c21 -24 28 -66 16 -99 -9 -22 -57 -45 -96 -45 l-33 0 3 75 c3 55 1 75 -8 75 -10 0 -9 4 0 16 19 22 89 9 118 -22z m75 -57 c2 -87 2 -87 -23 -87 -25 0 -25 0 -23 87 1 49 2 89 3 89 0 1 9 1 21 0 19 -1 20 -8 22 -89z m120 82 c28 -15 37 -28 37 -57 0 -18 -10 -28 -45 -43 -25 -11 -45 -24 -45 -29 0 -14 24 -12 39 3 10 10 15 8 27 -7 23 -32 17 -37 -37 -34 -39 2 -55 8 -65 23 -19 29 2 65 45 80 40 13 51 32 25 42 -11 4 -23 -1 -35 -15 -22 -28 -33 -28 -47 3 -13 27 -11 28 33 38 35 8 46 7 68 -4z m100 -82 c2 -87 2 -87 -23 -87 -25 0 -25 1 -25 82 0 81 7 100 33 95 10 -1 14 -26 15 -90z m-1183 -112 c0 -8 -9 -15 -20 -15 -11 0 -20 7 -20 15 0 8 9 15 20 15 11 0 20 -7 20 -15z m960 0 c0 -8 -9 -15 -20 -15 -11 0 -20 7 -20 15 0 8 9 15 20 15 11 0 20 -7 20 -15z m220 0 c0 -8 -9 -15 -20 -15 -11 0 -20 7 -20 15 0 8 9 15 20 15 11 0 20 -7 20 -15z m-788 -170 c499 -65 749 -319 527 -535 -108 -104 -284 -172 -532 -205 -370 -48 -771 38 -942 201 -308 295 276 627 947 539z"/>
 <path d="M1553 1202 c-9 -14 -14 -15 -32 -4 -31 18 -41 15 -41 -13 0 -23 2 -24 20 -15 18 10 20 8 20 -20 0 -32 -8 -38 -28 -18 -9 9 -12 7 -12 -10 0 -23 15 -28 40 -13 10 7 18 4 28 -10 21 -30 32 -13 32 51 0 62 -9 79 -27 52z"/>
 <path d="M1770 1159 c0 -52 2 -60 18 -57 31 6 29 100 -3 112 -12 4 -15 -5 -15 -55z"/>
 <path d="M1099 670 c-69 -19 -99 -59 -99 -136 0 -41 5 -51 40 -87 46 -46 66 -43 26 3 -25 31 -34 78 -20 114 12 31 24 4 24 -52 0 -54 2 -59 40 -90 l39 -33 53 14 53 13 -28 24 c-32 28 -34 40 -7 40 18 0 19 2 8 20 -9 13 -24 20 -45 20 l-33 0 0 55 c0 46 3 55 18 55 10 0 27 -7 38 -15 29 -22 47 -20 34 5 -19 36 -94 62 -141 50z m31 -137 c0 -103 -12 -121 -17 -25 -2 43 -7 61 -23 74 l-20 17 22 15 c12 9 26 16 30 16 5 0 8 -44 8 -97z m48 -85 c-22 -13 -28 -9 -28 19 0 26 0 26 20 8 16 -14 17 -20 8 -27z"/>
 </g>
<g id="layer2" fill="#dca229" stroke="none">
 <path d="M125 1242 c-2 -2 -1 -19 2 -38 4 -22 2 -34 -6 -34 -6 0 -11 -7 -11 -15 0 -8 5 -15 11 -15 8 0 10 -12 6 -35 l-6 -35 64 0 c70 0 82 7 60 36 -11 15 -16 17 -26 7 -20 -20 -39 -15 -39 9 0 17 3 19 12 10 20 -20 28 -14 28 18 0 28 -2 30 -20 20 -18 -9 -20 -8 -20 15 0 28 10 31 40 13 16 -11 22 -9 35 7 15 20 16 19 45 -13 16 -18 30 -36 30 -41 0 -4 -11 -25 -25 -45 l-24 -36 33 0 c26 0 35 5 39 21 3 12 10 18 17 14 6 -4 9 -13 6 -21 -4 -10 3 -14 24 -14 37 0 37 6 4 41 -23 24 -24 30 -14 50 7 13 24 36 37 50 28 30 23 36 -27 35 -29 -1 -35 -5 -35 -23 0 -29 -12 -38 -30 -23 -12 10 -13 16 -4 26 6 8 10 15 8 15 -10 4 -211 4 -214 1z"/>
 <path d="M475 1227 c-39 -33 -45 -94 -13 -132 21 -24 32 -28 67 -27 56 2 63 8 49 37 -13 28 -26 32 -34 10 -10 -25 -43 -18 -50 10 -11 44 10 94 39 95 4 0 12 -12 17 -26 11 -28 30 -24 30 6 0 21 -36 50 -62 50 -9 0 -29 -10 -43 -23z"/>
 <path d="M605 1242 c-2 -2 -1 -19 2 -38 4 -22 2 -34 -6 -34 -6 0 -11 -7 -11 -15 0 -8 5 -15 11 -15 8 0 10 -12 6 -35 l-6 -35 64 0 c70 0 80 6 59 35 -11 15 -17 16 -26 7 -19 -19 -38 -14 -38 10 0 17 3 19 12 10 20 -20 28 -14 28 18 0 28 -2 30 -20 20 -18 -9 -20 -8 -20 15 0 28 10 31 40 13 16 -11 22 -9 33 6 8 11 19 16 25 12 16 -10 15 -119 0 -134 -9 -9 -4 -12 23 -12 l34 0 -3 75 c-4 77 2 89 32 60 20 -20 31 -19 50 8 15 21 16 18 13 -61 -2 -82 -2 -82 23 -82 25 0 25 1 25 85 0 49 -4 85 -10 86 -29 3 -337 4 -340 1z"/>
 <path d="M974 1238 c-4 -5 -1 -15 5 -21 15 -15 14 -120 -1 -135 -9 -9 -2 -12 31 -12 30 0 41 4 38 13 -4 11 18 67 27 67 5 0 -3 -60 -9 -71 -4 -5 8 -9 25 -9 28 0 30 2 23 28 -4 15 -7 53 -7 85 -1 47 -4 57 -18 57 -10 0 -27 -17 -40 -42 -22 -42 -23 -43 -26 -15 -2 16 2 35 9 43 6 8 8 15 3 15 -39 6 -55 5 -60 -3z"/>
 <path d="M1135 1242 c-2 -2 -1 -19 2 -38 4 -22 2 -34 -6 -34 -6 0 -11 -7 -11 -15 0 -8 5 -15 11 -15 8 0 10 -12 6 -35 l-6 -35 64 0 c69 0 80 6 61 32 -8 11 -17 14 -27 7 -24 -15 -39 -10 -39 13 0 17 3 19 12 10 19 -19 28 -14 28 17 0 24 -3 28 -20 24 -15 -4 -20 0 -20 16 0 24 11 26 41 9 17 -11 22 -10 33 4 7 10 16 15 19 11 11 -10 8 -43 -3 -43 -5 0 -10 -7 -10 -15 0 -8 5 -15 11 -15 8 0 10 -12 6 -35 l-6 -35 180 0 c133 1 179 4 177 13 -3 18 12 57 23 57 12 0 11 -12 -1 -44 -9 -24 -8 -26 21 -26 27 0 30 2 23 23 -4 12 -8 51 -9 87 -1 82 -18 86 -57 15 l-28 -50 0 35 c0 20 5 41 12 48 14 14 16 14 -92 17 -105 3 -110 1 -103 -40 4 -23 2 -35 -6 -35 -6 0 -11 -7 -11 -15 0 -8 5 -15 10 -15 6 0 10 -11 10 -25 0 -29 -15 -33 -29 -7 -8 14 -12 15 -22 5 -18 -18 -49 -16 -49 1 0 19 17 29 25 16 12 -19 25 -10 25 19 0 25 -3 28 -25 23 -20 -3 -25 0 -25 16 0 12 5 24 11 27 5 4 8 12 6 18 -2 8 -38 12 -106 12 -56 0 -104 -1 -106 -3z m445 -92 c0 -64 -11 -81 -32 -51 -10 14 -18 17 -28 10 -25 -15 -40 -10 -40 13 0 17 3 19 12 10 20 -20 28 -14 28 18 0 28 -2 30 -20 20 -18 -9 -20 -8 -20 15 0 28 10 31 41 13 18 -11 23 -10 32 4 18 27 27 10 27 -52z"/>
 <path d="M1720 1236 c-9 -12 -10 -16 0 -16 9 0 11 -20 8 -75 l-3 -75 33 0 c39 0 87 23 96 45 12 33 5 75 -16 99 -29 31 -99 44 -118 22z m86 -51 c10 -38 0 -80 -18 -83 -16 -3 -18 5 -18 57 0 50 3 59 15 55 8 -4 18 -16 21 -29z"/>
 <path d="M1870 1246 c-1 0 -2 -40 -3 -89 -2 -87 -2 -87 23 -87 25 0 25 0 23 87 -2 81 -3 88 -22 89 -12 1 -21 1 -21 0z"/>
 <path d="M1965 1243 c-44 -10 -46 -11 -33 -38 14 -31 25 -31 47 -3 12 14 24 19 35 15 26 -10 15 -29 -25 -42 -43 -15 -64 -51 -45 -80 10 -15 26 -21 65 -23 54 -3 60 2 37 34 -12 15 -17 17 -27 7 -15 -15 -39 -17 -39 -3 0 5 20 18 45 29 35 15 45 25 45 43 0 29 -9 42 -37 57 -22 11 -33 12 -68 4z"/>
 <path d="M2095 1242 c-5 -4 -10 -44 -10 -90 0 -81 0 -82 25 -82 25 0 25 0 23 87 -2 87 -10 106 -38 85z"/>
 <path d="M910 1045 c0 -8 9 -15 20 -15 11 0 20 7 20 15 0 8 -9 15 -20 15 -11 0 -20 -7 -20 -15z"/>
 <path d="M1870 1045 c0 -8 9 -15 20 -15 11 0 20 7 20 15 0 8 -9 15 -20 15 -11 0 -20 -7 -20 -15z"/>
 <path d="M2090 1045 c0 -8 9 -15 20 -15 11 0 20 7 20 15 0 8 -9 15 -20 15 -11 0 -20 -7 -20 -15z"/>
 <path d="M908 875 c-420 -57 -669 -252 -579 -452 48 -104 211 -205 416 -257 33 -8 113 -22 178 -31 374 -49 774 38 946 205 159 154 77 338 -204 457 -185 79 -507 112 -757 78z m300 -224 c27 -14 49 -51 30 -51 -7 0 -22 7 -32 15 -11 8 -28 15 -38 15 -15 0 -18 -9 -18 -55 l0 -55 33 0 c21 0 36 -7 45 -20 11 -18 10 -20 -8 -20 -27 0 -25 -12 7 -40 l28 -24 -53 -13 -53 -14 -39 33 c-38 31 -40 36 -40 90 0 56 -12 83 -24 52 -14 -36 -5 -83 20 -114 40 -46 20 -49 -26 -3 -35 36 -40 46 -40 87 0 26 7 60 15 76 32 62 119 81 193 41z"/>
 <path d="M1092 614 l-22 -15 20 -17 c16 -13 21 -31 23 -74 5 -96 17 -78 17 25 0 53 -3 97 -8 97 -4 0 -18 -7 -30 -16z"/>
 <path d="M1150 467 c0 -28 6 -32 28 -19 9 7 8 13 -8 27 -20 18 -20 18 -20 -8z"/>
 </g>

</svg>